<?xml version="1.0" standalone="no"?>
<!DOCTYPE svg PUBLIC "-//W3C//DTD SVG 20010904//EN"
 "http://www.w3.org/TR/2001/REC-SVG-20010904/DTD/svg10.dtd">
<svg version="1.0" xmlns="http://www.w3.org/2000/svg"
 width="900.000000pt" height="300.000000pt" viewBox="0 0 900.000000 300.000000"
 preserveAspectRatio="xMidYMid meet">

<g transform="translate(0.000000,300.000000) scale(0.100000,-0.100000)"
fill="#000000" stroke="none">
<path d="M1317 2309 c-87 -20 -216 -100 -467 -287 -149 -111 -229 -179 -336
-287 -77 -79 -149 -160 -159 -181 -17 -36 -17 -52 -7 -244 13 -232 21 -272 65
-318 45 -47 106 -61 302 -72 94 -5 208 -14 254 -21 120 -16 190 -8 250 30 26
17 51 31 54 31 4 0 7 -17 7 -37 1 -47 22 -107 47 -135 34 -38 71 -47 235 -63
89 -8 218 -22 285 -30 200 -25 239 -19 311 49 20 19 86 75 147 126 212 178
434 390 446 428 16 48 3 365 -16 402 -20 39 -103 116 -157 145 -118 65 -330
105 -485 92 l-63 -5 0 86 0 86 -53 50 c-123 117 -269 167 -491 165 -72 -1
-148 -5 -169 -10z m373 -109 c56 -14 104 -33 140 -57 98 -64 100 -66 100 -153
l0 -76 -47 -21 c-62 -26 -256 -189 -453 -380 l-155 -150 -5 -149 -5 -149 -7
124 c-5 68 -8 150 -8 182 0 51 -3 61 -25 75 -23 15 -27 15 -51 -1 l-26 -17 3
-211 4 -211 -28 -10 c-19 -7 -61 -6 -135 3 -59 7 -179 16 -267 21 -163 8 -224
19 -245 44 -16 20 -27 113 -35 293 l-7 152 27 25 c54 51 111 68 235 74 151 6
214 -7 312 -64 92 -53 127 -55 143 -10 8 25 6 31 -18 51 -54 42 -182 103 -241
114 -33 6 -107 11 -165 11 l-106 1 50 45 c73 65 418 324 500 375 127 78 163
89 305 89 91 0 148 -6 210 -20z m703 -389 c97 -25 143 -49 206 -108 l52 -48 6
-166 6 -165 -35 -30 c-19 -16 -98 -87 -175 -159 -77 -71 -174 -158 -216 -193
l-77 -63 3 205 c1 148 5 206 14 206 6 0 44 28 85 61 40 34 127 103 193 152 66
50 123 95 127 101 20 29 -6 76 -41 76 -30 0 -404 -289 -415 -321 -5 -13 -13
-12 -60 11 -30 14 -74 44 -98 66 -64 59 -100 68 -260 69 l-137 0 32 34 c18 18
92 85 166 147 135 115 160 129 251 141 25 3 47 8 50 10 11 12 253 -8 323 -26z
m-563 -412 c30 -7 58 -23 85 -49 22 -21 62 -49 88 -60 26 -12 53 -31 58 -43 7
-15 7 -100 2 -242 l-8 -220 -65 1 c-36 0 -180 13 -320 27 -185 20 -258 31
-269 42 -16 16 -29 165 -30 363 -1 89 1 103 17 108 9 3 24 10 32 15 55 33 99
52 139 59 68 11 220 11 271 -1z"/>
<path d="M1710 2009 c-52 -34 -158 -114 -235 -179 -174 -146 -185 -157 -185
-178 0 -11 -12 -21 -32 -27 -39 -12 -73 -64 -64 -100 7 -26 35 -40 64 -31 24
8 65 72 60 94 -4 15 -1 18 18 14 16 -3 35 7 66 35 110 100 281 236 363 288 50
32 93 63 97 69 20 29 -5 76 -40 76 -9 0 -60 -28 -112 -61z"/>
<path d="M635 1568 c-11 -6 -24 -17 -28 -24 -5 -8 -18 -11 -35 -8 -21 4 -33
-1 -56 -25 -38 -39 -49 -130 -21 -161 36 -40 85 -14 85 46 0 45 27 86 51 79
10 -3 36 -1 58 5 31 8 42 17 47 36 13 49 -49 81 -101 52z"/>
<path d="M1615 1161 c-84 -21 -126 -71 -91 -110 9 -10 42 -31 74 -47 50 -25
68 -29 142 -29 59 1 94 6 115 17 61 32 71 101 19 134 -53 35 -185 53 -259 35z
m189 -81 c47 -17 16 -35 -62 -35 -93 0 -172 35 -109 49 33 7 139 -1 171 -14z"/>
<path d="M3640 2195 c-116 -33 -331 -172 -423 -275 -55 -61 -77 -122 -77 -210
0 -89 28 -144 95 -185 l48 -30 183 -2 c197 -2 244 -12 244 -54 0 -50 -70 -167
-155 -257 -97 -103 -165 -149 -277 -186 -124 -42 -168 -34 -243 43 -30 31 -47
41 -71 41 -36 0 -64 -29 -64 -66 0 -28 86 -116 139 -144 95 -48 226 -32 384
47 198 100 401 353 415 518 4 58 -20 104 -77 142 -54 36 -96 43 -272 43 -153
0 -168 2 -193 21 -23 18 -26 28 -26 77 0 75 20 106 119 184 97 77 171 122 252
155 62 25 104 27 226 8 37 -6 43 -4 59 20 23 35 10 72 -35 99 -45 26 -175 32
-251 11z"/>
<path d="M7336 1971 c-10 -10 -32 -84 -52 -167 -19 -81 -39 -165 -45 -187
l-10 -39 -59 6 c-51 6 -62 4 -80 -14 -11 -11 -20 -31 -20 -45 0 -31 36 -65 69
-65 47 0 52 -10 35 -70 -21 -78 -29 -233 -15 -302 24 -111 137 -196 247 -185
73 8 119 35 205 124 77 79 139 173 139 212 0 28 -34 61 -63 61 -27 0 -57 -29
-82 -80 -22 -43 -130 -157 -167 -176 -45 -24 -83 -18 -122 20 l-36 33 0 93 c0
107 35 270 57 270 8 0 69 17 136 39 67 21 154 44 193 51 79 13 114 36 114 75
0 25 -31 65 -50 65 -39 0 -204 -36 -274 -60 -47 -16 -86 -27 -86 -25 0 3 16
72 35 154 41 173 42 184 15 211 -25 25 -62 26 -84 1z"/>
<path d="M8315 1696 c-74 -25 -190 -83 -224 -112 -66 -55 -95 -165 -63 -237
19 -42 24 -46 140 -98 163 -73 160 -70 139 -114 -14 -30 -32 -43 -101 -76
-104 -50 -151 -58 -211 -34 -55 20 -91 14 -107 -20 -19 -41 -2 -74 48 -97 99
-43 196 -33 335 38 95 47 134 85 159 152 27 71 22 123 -15 162 -15 16 -83 54
-151 86 l-125 58 7 31 c9 45 27 60 129 105 83 36 102 40 161 39 59 -2 70 1 86
21 23 28 23 52 0 80 -16 19 -30 23 -93 26 -45 2 -90 -1 -114 -10z"/>
<path d="M5093 1668 c-19 -21 -241 -421 -294 -531 -13 -26 -26 -47 -30 -47 -4
0 -15 21 -24 48 -12 33 -18 95 -22 207 -3 88 -9 170 -14 181 -10 27 -56 44
-87 33 -13 -5 -30 -25 -38 -44 -60 -145 -309 -485 -346 -473 -20 7 -26 50 -27
193 -1 113 8 201 35 356 12 71 -65 106 -108 49 -28 -38 -47 -157 -54 -335 -15
-346 59 -469 222 -375 54 30 164 152 246 272 l43 63 6 -55 c15 -128 69 -248
126 -278 35 -19 71 -14 102 16 33 31 371 652 371 682 0 27 -35 60 -63 60 -13
0 -33 -10 -44 -22z"/>
<path d="M6548 1635 c-72 -20 -129 -57 -229 -152 -100 -95 -131 -145 -149
-241 -15 -72 -8 -194 13 -245 22 -50 88 -104 154 -123 71 -21 178 -14 244 14
52 23 220 125 244 148 33 34 2 104 -46 104 -12 0 -62 -25 -112 -57 -129 -79
-162 -93 -233 -93 -47 0 -69 5 -95 23 -37 25 -47 49 -48 122 l-1 50 138 23
c174 28 200 35 258 75 99 66 140 188 95 281 -38 77 -121 102 -233 71z m120
-152 c4 -42 -37 -98 -84 -113 -38 -13 -237 -50 -242 -46 -1 2 32 36 75 76 87
82 160 122 213 118 31 -3 35 -6 38 -35z"/>
<path d="M5654 1626 c-28 -7 -68 -23 -88 -35 -56 -35 -185 -187 -219 -259 -30
-65 -66 -204 -67 -257 0 -50 44 -131 87 -159 48 -32 152 -50 252 -44 69 4 87
10 181 59 158 82 202 137 150 184 -28 25 -62 22 -111 -13 -24 -16 -75 -46
-114 -67 -69 -37 -71 -37 -165 -33 -52 3 -105 10 -117 16 -28 15 -38 66 -24
119 l11 41 73 7 c83 8 201 44 267 82 64 37 138 101 155 134 38 72 2 188 -69
220 -47 21 -126 23 -202 5z m151 -150 c0 -25 -10 -36 -61 -72 -60 -41 -150
-76 -228 -89 l-38 -6 21 28 c11 15 44 54 73 86 60 66 107 88 183 84 48 -2 50
-3 50 -31z"/>
</g>
</svg>
