<?xml version="1.0" standalone="no"?>
<!DOCTYPE svg PUBLIC "-//W3C//DTD SVG 20010904//EN"
 "http://www.w3.org/TR/2001/REC-SVG-20010904/DTD/svg10.dtd">
<svg version="1.0" xmlns="http://www.w3.org/2000/svg"
 width="128.000000pt" height="128.000000pt" viewBox="0 0 128.000000 128.000000"
 preserveAspectRatio="xMidYMid meet">

<g transform="translate(0.000000,128.000000) scale(0.100000,-0.100000)"
fill="#000000" stroke="none">
<path d="M595 973 c-291 -145 -533 -270 -538 -276 -16 -25 -19 -59 -7 -88 11
-27 68 -57 548 -294 294 -146 544 -265 554 -265 11 0 33 13 49 29 l29 29 0
537 0 537 -29 29 c-17 16 -40 29 -53 28 -13 0 -261 -120 -553 -266z m587 220
c17 -15 18 -45 18 -546 0 -480 -2 -532 -17 -549 -9 -10 -24 -18 -35 -18 -21 0
-1034 504 -1060 528 -23 19 -23 55 0 74 26 24 1034 527 1056 527 11 1 28 -6
38 -16z"/>
</g>
</svg>
