<?xml version="1.0" standalone="no"?>
<!DOCTYPE svg PUBLIC "-//W3C//DTD SVG 20010904//EN"
 "http://www.w3.org/TR/2001/REC-SVG-20010904/DTD/svg10.dtd">
<svg version="1.0" xmlns="http://www.w3.org/2000/svg"
 width="128.000000pt" height="128.000000pt" viewBox="0 0 128.000000 128.000000"
 preserveAspectRatio="xMidYMid meet">

<g transform="translate(0.000000,128.000000) scale(0.100000,-0.100000)"
fill="#000000" stroke="none">
<path d="M69 1211 l-29 -29 0 -537 0 -537 29 -29 c16 -16 38 -29 49 -29 10 0
260 119 554 264 482 238 536 267 548 295 12 30 9 62 -8 89 -12 18 -1069 542
-1094 542 -11 0 -33 -13 -49 -29z m584 -257 c281 -141 520 -263 529 -272 23
-19 23 -55 0 -74 -25 -23 -1039 -528 -1059 -528 -9 0 -25 7 -35 17 -17 15 -18
45 -18 546 0 480 2 532 17 549 9 10 24 18 35 18 10 0 249 -115 531 -256z"/>
</g>
</svg>
